<svg width="83" height="58" viewBox="0 0 83 58" fill="none" xmlns="http://www.w3.org/2000/svg">
<path d="M5.02063 45.8257C6.03543 48.0053 12.0708 57.9998 38.1886 57.9998C64.1461 57.9998 70.7156 48.1117 71.8906 45.8788C70.0213 47.9522 55.7607 49.547 38.4556 49.547C21.0972 49.4939 6.72977 47.899 5.02063 45.8257Z" fill="url(#paint0_linear_46_214)"/>
<path d="M38.509 48.0587C57.0926 48.0587 72.1577 46.4402 72.1577 44.4436C72.1577 42.4471 57.0926 40.8286 38.509 40.8286C19.9254 40.8286 4.86035 42.4471 4.86035 44.4436C4.86035 46.4402 19.9254 48.0587 38.509 48.0587Z" fill="white"/>
<path d="M61.0482 42.4763V37.9043L65.3745 35.3525H69.2734L64.4131 38.1701V42.9547L61.0482 42.4763Z" fill="white"/>
<path d="M65.321 34.8743V34.6085C65.321 34.2895 65.4813 33.9705 65.8017 33.811L75.2554 28.4417C75.469 28.3353 75.7361 28.229 76.0032 28.229H82.4658C82.7863 28.229 82.9999 28.4948 82.9999 28.7606V29.2391C82.9999 29.5581 82.8397 29.8239 82.5727 29.9834L69.1132 37.0539C68.953 37.1071 68.7927 37.1603 68.6325 37.1603H66.8699L70.7155 34.8211L65.321 34.8743Z" fill="white"/>
<path d="M12.4446 9.14391C12.4446 4.7846 14.9015 0 19.8152 0C21.5778 0 24.3017 0.744271 24.3017 2.92392C24.3017 4.09349 23.5006 4.73144 22.2187 4.73144C21.3641 4.73144 22.4858 2.8176 19.9221 2.8176C16.9845 2.8176 15.7026 5.79468 15.7026 8.34647C15.7026 12.1742 18.3197 13.769 20.0823 13.769C23.3937 13.769 23.6608 10.8451 23.821 10.8451C24.0881 10.8451 24.2483 12.44 24.2483 12.6526C24.2483 15.6297 21.9517 17.3841 19.1209 17.3841C14.581 17.3841 12.4446 13.2374 12.4446 9.14391Z" fill="white"/>
<path d="M34.8236 17.0651C34.61 17.0651 34.0759 17.0651 34.0759 16.7461C34.0759 16.6398 34.0759 16.5334 34.1293 16.4803C34.8236 14.6196 35.4111 12.7589 35.4111 10.7388C35.4111 9.35654 34.877 8.93124 33.4883 8.93124C31.4587 8.93124 29.2689 9.88816 29.2689 12.2273C29.2689 13.6627 29.536 15.2575 30.1235 16.5866C30.1769 16.6929 30.2303 16.7992 30.2303 16.9056C30.2303 17.1714 29.7496 17.1182 29.5894 17.1182H26.5984C26.0109 17.1182 26.0109 11.3235 26.0109 10.4729C26.0109 8.9844 26.4381 0.372118 27.3995 0.372118H30.1769C30.2837 0.372118 30.7644 0.318956 30.7644 0.531605C30.7644 0.797416 29.3757 3.72134 29.3757 5.84783C29.3757 6.32629 29.536 6.85791 29.8564 6.85791C30.4974 6.85791 30.4974 6.27313 33.2213 6.27313C34.2361 6.27313 34.9838 6.48578 34.9838 5.63518C34.9838 3.72134 33.2213 0.850578 33.2213 0.584767C33.2213 0.318956 33.8088 0.372118 33.969 0.372118H36.6396C37.3873 0.372118 38.4021 6.1668 38.4021 10.4729C38.4021 11.4299 38.4021 17.1182 37.7612 17.1182H34.8236V17.0651Z" fill="white"/>
<path d="M41.2329 17.0651C40.1647 17.1183 40.4851 16.374 40.3783 12.3337C40.3783 9.62242 41.4999 0.319032 42.0874 0.319032H50.0456C50.3127 0.319032 51.007 0.265869 51.007 0.638005C51.007 0.797492 49.7251 3.61509 49.4581 3.61509C49.1376 3.61509 48.5501 2.65817 46.5205 2.65817C45.1318 2.65817 43.6363 3.50877 43.6363 5.42261C43.6363 5.8479 43.7432 6.59218 44.2773 6.59218C44.9182 6.59218 46.3603 5.63526 48.0694 5.63526C48.3365 5.63526 48.9774 5.74158 48.9774 6.06055C48.9774 6.06055 47.8558 9.35661 47.5887 9.35661C47.3751 9.35661 46.6273 8.93131 45.8262 8.93131C44.8114 8.93131 43.3159 9.67558 43.3159 11.6957C43.3159 13.2906 44.1704 14.4602 45.8796 14.4602C47.9092 14.4602 49.1376 13.1311 49.6183 13.1311C49.9388 13.1311 51.2741 16.5335 51.2741 16.7462C51.2741 17.1183 50.7934 17.0651 50.5263 17.0651H41.2329Z" fill="white"/>
<path d="M62.1698 0.319128C62.4369 0.319128 63.1312 0.265966 63.1312 0.638101C63.1312 0.797588 61.8494 3.61519 61.5823 3.61519C61.2618 3.61519 60.6209 2.65827 58.6447 2.65827C57.256 2.65827 55.7606 3.50886 55.7606 5.4227C55.7606 6.64543 55.814 7.01757 56.4015 7.01757C57.7367 7.01757 57.8436 6.11381 60.5141 6.11381C60.7277 6.11381 61.2084 6.11381 61.2084 6.43278C61.2084 6.53911 60.4073 9.67568 60.0868 9.67568C59.8732 9.67568 59.3391 9.40987 58.5379 9.40987C56.7754 9.40987 55.8674 10.42 55.8674 12.068C55.8674 13.8223 56.6685 16.6399 56.6685 16.8526C56.6685 17.1184 56.1878 17.0121 55.9742 17.0121H53.5707C53.09 17.0121 52.4491 17.3842 52.4491 9.83517C52.4491 -0.106171 53.5173 0.265966 53.8378 0.265966H62.1698V0.319128Z" fill="white"/>
<path d="M15.9163 16.5332C16.1834 16.5332 16.7709 16.5332 16.7709 17.0648C16.7709 17.2775 16.0765 19.6166 16.0765 20.9988C16.0765 21.371 16.1299 21.7431 16.6106 21.7431C16.8777 21.7431 17.1982 21.6368 17.572 21.4773C17.9993 21.371 18.4266 21.2115 18.9607 21.2115C20.9903 21.2115 23.7677 23.019 23.7677 27.9631C23.7677 30.6744 23.0733 32.854 21.3642 34.821C20.6698 35.6184 19.4414 36.6817 17.6254 36.6817H13.4594C12.6048 36.6817 12.7117 28.8137 12.7117 28.2289C12.7117 27.1125 12.6048 16.5864 13.6731 16.5864H15.9163V16.5332ZM20.563 28.2289C20.563 24.3481 18.9073 23.4443 17.8925 23.4443C16.2368 23.4443 15.8629 24.2949 15.8629 27.6973C15.8629 32.8008 17.0913 32.6945 17.6789 32.6945C19.9755 32.6945 20.563 29.9832 20.563 28.2289Z" fill="white"/>
<path d="M24.729 29.0799C24.729 25.3054 26.545 21.2119 30.6576 21.2119C34.7702 21.2119 36.5861 25.3054 36.5861 29.0799C36.5861 34.6088 33.3815 37.0011 30.6576 37.0011C27.9336 37.0011 24.729 34.6088 24.729 29.0799ZM33.702 28.442C33.702 26.5813 33.061 23.9232 30.711 23.9232C28.3609 23.9232 27.72 26.5813 27.72 28.442C27.72 30.3027 28.3609 33.0139 30.711 33.0139C33.061 33.0139 33.702 30.3558 33.702 28.442Z" fill="white"/>
<path d="M52.6093 21.5309C53.5707 21.5309 53.7309 21.4777 53.7309 23.87C53.7309 32.4291 49.0842 36.9479 48.4967 36.9479C47.8558 36.9479 46.5739 34.3961 46.3069 33.8113C46.2535 33.6518 45.7728 32.4823 45.4523 32.4823C45.2387 32.4823 44.9182 33.1202 44.8114 33.3329C44.5443 33.8645 42.8886 37.0011 42.2477 37.0011C41.4999 37.0011 37.601 31.8975 37.601 24.1358C37.601 21.265 37.9748 21.584 38.8828 21.584H40.7522C41.0192 21.584 41.2863 21.584 41.2863 21.9562C41.2863 22.1688 41.0192 22.7536 41.0192 24.8801C41.0192 28.9204 42.1409 32.057 42.5147 32.057C42.942 32.057 44.5443 30.4621 44.4375 24.5079C44.4375 23.6573 44.2773 22.3815 44.2773 22.0093C44.2773 21.7435 44.3841 21.6372 44.6511 21.6372H47.0012C47.2149 21.6372 47.5353 21.6372 47.5353 21.9562C47.5353 22.222 47.3217 23.7105 47.3217 24.9332C47.3217 29.3457 48.4433 32.057 48.9774 32.057C49.5649 32.057 50.74 28.7078 50.74 25.1991C50.74 23.6573 50.4195 22.5941 50.4195 21.9562C50.4195 21.5309 50.9536 21.584 51.2741 21.584H52.6093V21.5309Z" fill="white"/>
<path d="M56.2413 36.6288C55.3867 36.6288 55.4935 28.7608 55.4935 28.176C55.4935 27.0596 55.3867 16.5335 56.4549 16.5335H58.6982C58.9652 16.5335 59.6595 16.4803 59.6595 16.9588C59.6595 17.1183 58.6447 20.4675 58.6447 26.3685C58.6447 32.8543 59.5527 36.044 59.5527 36.3098C59.5527 36.7351 58.9118 36.5757 58.6982 36.5757H56.2413V36.6288Z" fill="white"/>
<path d="M11.1094 36.6821L9.82751 40.3503L13.7799 39.3934L11.1094 36.6821Z" fill="url(#paint1_linear_46_214)"/>
<path d="M24.3552 42.4233L22.4324 44.1777L25.1029 44.8688L24.3552 42.4233Z" fill="url(#paint2_linear_46_214)"/>
<path d="M9.88098 24.9331L7.90479 26.7406L10.5753 27.4317L9.88098 24.9331Z" fill="url(#paint3_linear_46_214)"/>
<path d="M45.9331 43.1147L45.4524 45.7197L48.0161 44.6565L45.9331 43.1147Z" fill="url(#paint4_linear_46_214)"/>
<path d="M13.8867 43.9118L15.1152 44.8687L15.2754 43.2207L13.8867 43.9118Z" fill="white"/>
<path d="M55.3867 39.1274L54.1049 42.7956L58.0572 41.8387L55.3867 39.1274Z" fill="url(#paint5_linear_46_214)"/>
<path d="M10.415 32.0035C10.415 32.6946 9.8275 33.2262 9.18657 33.2262C8.49224 33.2262 7.95813 32.6414 7.95813 32.0035C7.95813 31.3124 8.54565 30.7808 9.18657 30.7808C9.8275 30.7808 10.415 31.3124 10.415 32.0035Z" fill="white"/>
<path d="M34.6634 41.945C35.3418 41.945 35.8918 41.3975 35.8918 40.7222C35.8918 40.0469 35.3418 39.4995 34.6634 39.4995C33.9849 39.4995 33.4349 40.0469 33.4349 40.7222C33.4349 41.3975 33.9849 41.945 34.6634 41.945Z" fill="url(#paint6_linear_46_214)"/>
<path d="M6.08873 37.7982C6.35421 37.7982 6.56942 37.584 6.56942 37.3198C6.56942 37.0555 6.35421 36.8413 6.08873 36.8413C5.82325 36.8413 5.60803 37.0555 5.60803 37.3198C5.60803 37.584 5.82325 37.7982 6.08873 37.7982Z" fill="white"/>
<path d="M37.7612 43.4335C37.7612 43.6993 37.5476 43.912 37.2805 43.912C37.0134 43.912 36.7998 43.6993 36.7998 43.4335C36.7998 43.1677 37.0134 42.9551 37.2805 42.9551C37.5476 42.9551 37.7612 43.1677 37.7612 43.4335Z" fill="white"/>
<path d="M50.1524 45.2412C50.1524 45.507 49.9388 45.7196 49.6717 45.7196C49.4047 45.7196 49.191 45.507 49.191 45.2412C49.191 44.9753 49.4047 44.7627 49.6717 44.7627C49.8854 44.7627 50.1524 44.9753 50.1524 45.2412Z" fill="white"/>
<path d="M60.0869 43.5932C60.0869 43.859 59.8732 44.0717 59.6062 44.0717C59.3391 44.0717 59.1255 43.859 59.1255 43.5932C59.1255 43.3274 59.3391 43.1147 59.6062 43.1147C59.8732 43.1147 60.0869 43.3274 60.0869 43.5932Z" fill="white"/>
<path d="M26.9723 39.6591C27.2378 39.6591 27.453 39.4449 27.453 39.1806C27.453 38.9164 27.2378 38.7021 26.9723 38.7021C26.7068 38.7021 26.4916 38.9164 26.4916 39.1806C26.4916 39.4449 26.7068 39.6591 26.9723 39.6591Z" fill="white"/>
<path d="M72.7451 28.0698C72.7451 28.3356 72.5314 28.5482 72.2644 28.5482C71.9973 28.5482 71.7837 28.3356 71.7837 28.0698C71.7837 27.804 71.9973 27.5913 72.2644 27.5913C72.5314 27.5913 72.7451 27.804 72.7451 28.0698Z" fill="url(#paint7_linear_46_214)"/>
<path d="M5.44784 32.5351C5.44784 32.8009 5.2342 33.0136 4.96715 33.0136C4.70009 33.0136 4.48645 32.8009 4.48645 32.5351C4.48645 32.2693 4.70009 32.0566 4.96715 32.0566C5.18079 32.0566 5.44784 32.2693 5.44784 32.5351Z" fill="white"/>
<path d="M42.2477 39.4994C42.5131 39.4994 42.7284 39.2852 42.7284 39.0209C42.7284 38.7567 42.5131 38.5425 42.2477 38.5425C41.9822 38.5425 41.767 38.7567 41.767 39.0209C41.767 39.2852 41.9822 39.4994 42.2477 39.4994Z" fill="white"/>
<path d="M64.2529 22.3811C64.2529 22.6469 64.0392 22.8596 63.7722 22.8596C63.5051 22.8596 63.2915 22.6469 63.2915 22.3811C63.2915 22.1153 63.5051 21.9027 63.7722 21.9027C64.0392 21.8495 64.2529 22.0622 64.2529 22.3811Z" fill="white"/>
<path d="M52.1821 39.287C52.4476 39.287 52.6628 39.0728 52.6628 38.8085C52.6628 38.5443 52.4476 38.3301 52.1821 38.3301C51.9166 38.3301 51.7014 38.5443 51.7014 38.8085C51.7014 39.0728 51.9166 39.287 52.1821 39.287Z" fill="white"/>
<path d="M64.3597 31.8974C64.3597 32.1632 64.1461 32.3759 63.879 32.3759C63.612 32.3759 63.3983 32.1632 63.3983 31.8974C63.3983 31.6316 63.612 31.4189 63.879 31.4189C64.1461 31.4189 64.3597 31.6316 64.3597 31.8974Z" fill="url(#paint8_linear_46_214)"/>
<path d="M68.5791 26.1026C68.5791 26.7937 67.9916 27.3253 67.3506 27.3253C66.6563 27.3253 66.1222 26.7406 66.1222 26.1026C66.1222 25.4115 66.7097 24.8799 67.3506 24.8799C67.9916 24.8799 68.5791 25.4115 68.5791 26.1026Z" fill="white"/>
<defs>
<linearGradient id="paint0_linear_46_214" x1="38.4681" y1="43.0733" x2="38.4681" y2="58.8602" gradientUnits="userSpaceOnUse">
<stop stop-color="#FBB040"/>
<stop offset="1" stop-color="#F99441"/>
</linearGradient>
<linearGradient id="paint1_linear_46_214" x1="10.4667" y1="38.5287" x2="13.6814" y2="39.6532" gradientUnits="userSpaceOnUse">
<stop stop-color="#FBB040"/>
<stop offset="1" stop-color="#F99441"/>
</linearGradient>
<linearGradient id="paint2_linear_46_214" x1="23.3876" y1="43.2939" x2="24.945" y2="44.9854" gradientUnits="userSpaceOnUse">
<stop stop-color="#FBB040"/>
<stop offset="1" stop-color="#F99441"/>
</linearGradient>
<linearGradient id="paint3_linear_46_214" x1="8.88986" y1="25.8432" x2="10.4472" y2="27.5346" gradientUnits="userSpaceOnUse">
<stop stop-color="#FBB040"/>
<stop offset="1" stop-color="#F99441"/>
</linearGradient>
<linearGradient id="paint4_linear_46_214" x1="45.6936" y1="44.4009" x2="47.9608" y2="44.8151" gradientUnits="userSpaceOnUse">
<stop stop-color="#FBB040"/>
<stop offset="1" stop-color="#F99441"/>
</linearGradient>
<linearGradient id="paint5_linear_46_214" x1="54.758" y1="40.9722" x2="57.9727" y2="42.0966" gradientUnits="userSpaceOnUse">
<stop stop-color="#FBB040"/>
<stop offset="1" stop-color="#F99441"/>
</linearGradient>
<linearGradient id="paint6_linear_46_214" x1="33.4189" y1="40.7286" x2="35.9243" y2="40.7286" gradientUnits="userSpaceOnUse">
<stop stop-color="#FF7F51"/>
<stop offset="1" stop-color="#FF9B54"/>
</linearGradient>
<linearGradient id="paint7_linear_46_214" x1="71.755" y1="28.0613" x2="72.7424" y2="28.0613" gradientUnits="userSpaceOnUse">
<stop stop-color="#FBB040"/>
<stop offset="1" stop-color="#F99441"/>
</linearGradient>
<linearGradient id="paint8_linear_46_214" x1="63.3717" y1="31.887" x2="64.3592" y2="31.887" gradientUnits="userSpaceOnUse">
<stop stop-color="#FBB040"/>
<stop offset="1" stop-color="#F99441"/>
</linearGradient>
</defs>
</svg>
